<svg width="44" height="44" viewBox="0 0 44 44" fill="none" xmlns="http://www.w3.org/2000/svg">
<path d="M34 14.1843C34 20.9135 24.834 35.6 22 35.6C20.5553 35.6 10 20.9131 10 14.1843C10 7.4551 15.3726 2 22 2C28.6274 1.99968 34 7.45474 34 14.1843V14.1843Z" stroke="#E7021F" stroke-width="3"/>
<path d="M24.3997 12.6668C24.3997 14.1395 23.2056 15.3333 21.7331 15.3333C20.2602 15.3333 19.0664 14.1395 19.0664 12.6668C19.0664 11.1939 20.2602 10 21.7331 10C23.2056 10 24.3997 11.1939 24.3997 12.6668Z" fill="#E7021F"/>
<path d="M8.51982 27.0664H4.99559L2 41.9997H42L39.3568 27.4178H35.8326" stroke="#E7021F" stroke-width="3" stroke-linejoin="round"/>
</svg>
